                        <svg width="237" height="148" viewBox="0 0 880 550" fill="none" xmlns="http://www.w3.org/2000/svg">
                        <defs>
                            <!-- Font definition -->
                            <style>
                            :root {
                                --primary-color: #c667ff;
                                --secondary-color: #9d34d4;
                                --background-color: #f7fafc;
                                --text-color: #1e293b;
                                --light-grey: #e8ecef;
                                --light-grey-dark: #dbe2ea;
                                --dark-grey: #717b83;

                                --card-background: #ffffff;
                                --left-sidebar-width: 300px;

                                --white: #ffffff;
                                --white-dark: #f8f8f8;
                                --red: #dc3545;
                                --red-dark: #B12836;

                                --button-color: var(--text-color);
                                --button--hover-color: #000;

                                --mindmap-item-bg: var(--white);
                                --mindmap-item-hover-bg: #f5f5f7;
                                }


                                @media (prefers-color-scheme: dark) {
                                :root {
                                    --primary-color: #59008e;
                                    --secondary-color: #7723a4;
                                    --background-color: #131515;
                                    --text-color: #CCC7C1;
                                    --light-grey: #232627;
                                    --light-grey-dark: #282b2d;
                                    --dark-grey: #85919b;

                                    --card-background: #181a1b;

                                    --white: #181A1B;
                                    --white-dark: #1C1E1F;
                                    --red: #a51d2a;
                                    --red-dark: #8e202b;

                                    --button-color: var(--primary-color);
                                    --button--hover-color: var(--secondary-color);

                                    --mindmap-item-bg: var(--white);
                                    --mindmap-item-hover-bg: #1E2021;
                                }
                                }
                            .text-bg { font-family: 'system-ui', sans-serif; font-size: 32px; fill: var(--text-color); font-weight: 400; }
                            .menu-text { font-family: 'system-ui', sans-serif; font-size: 26px; fill: var(--text-color); font-weight: 500; letter-spacing: -0.2px; }
                            </style>
                                <filter id="shadow" x="-50%" y="-50%" width="200%" height="200%" filterUnits="userSpaceOnUse">
                                <feDropShadow dx="0" dy="12" stdDeviation="24" flood-color="#000000" flood-opacity="0.04"/>
                                <feDropShadow dx="0" dy="2" stdDeviation="6" flood-color="#000000" flood-opacity="0.02"/>
                                </filter>
                        </defs>

                        <g transform="translate(50, 40)">
                            <path d="M-70 50 L 6 50" stroke="#F97316" stroke-width="12" fill="none" stroke-linecap="round"/>
                            <rect x="0" y="0" width="600" height="100" rx="16" fill-opacity="0.18" fill="rgb(255, 127, 15)"/>
                            <text x="30" y="62" class="text-bg">Right-click on a node for options</text>
                        </g>

                        <g transform="translate(50, 200)">
                            <path d="M-70 50 L 6 50" stroke="#14B8A6" stroke-width="12" fill="none" stroke-linecap="round"/>
                            <rect x="0" y="0" width="420" height="100" rx="16" fill-opacity="0.18" fill="rgb(0, 191, 191)"/>
                            <text x="30" y="62" class="text-bg">Double click to enter text</text>
                        </g>

                        <g transform="translate(272, 48)">
                            
                            <rect x="0" y="0" width="336" height="454" rx="32" fill="var(--white)" filter="url(#shadow)"/>

                            <g transform="translate(36, 44)">
                            <circle cx="0" cy="0" r="16" fill="#FF9F59"/>
                            <circle cx="44" cy="0" r="16" fill="#64D2D2"/>
                            <circle cx="88" cy="0" r="16" fill="#FF6B99"/>
                            <circle cx="132" cy="0" r="16" fill="#D184F8"/>
                            <circle cx="176" cy="0" r="16" fill="#70E070"/>
                            <circle cx="220" cy="0" r="16" fill="#FFD75E"/>
                            <circle cx="264" cy="0" r="16" fill="#5CB8FF"/>
                            </g>

                            <g transform="translate(28, 110)" color="var(--text-color)">
                            
                            <g transform="translate(0, 0)">
                                <g transform="translate(0, -6) scale(1.5)" stroke="currentColor" stroke-width="1.8" stroke-linecap="round" stroke-linejoin="round">
                                    <path d="M5 12h14"/>
                                    <path d="M12 5v14"/>
                                </g>
                                <text x="64" y="19" stroke="none" class="menu-text">Add Branch</text>
                            </g>

                            <g transform="translate(0, 72)">
                                <g transform="translate(0, -6) scale(1.5)" stroke="currentColor" stroke-width="1.8" stroke-linecap="round" stroke-linejoin="round">
                                    <path d="M21 5H3"/>
                                    <path d="M15 12H3"/>
                                    <path d="M17 19H3"/>
                                </g>
                                <text x="64" y="19" stroke="none" class="menu-text">Add Notes</text>
                            </g>

                            <g transform="translate(0, 144)">
                                <g transform="translate(0, -6) scale(1.5)" stroke="currentColor" stroke-width="1.8" stroke-linecap="round" stroke-linejoin="round" fill="none">
                                    <path d="M8 12C13 12 11 6 16 6"></path>
                                    <path d="M8 12C13 12 11 18 16 18"></path>
                                    <rect x="16" y="3" width="6" height="6" rx="1"></rect>
                                    <rect x="16" y="15" width="6" height="6" rx="1"></rect>
                                    <rect x="2" y="9" width="6" height="6" rx="1"></rect>
                                </g>
                                <text x="64" y="19" stroke="none" class="menu-text">AI Expand</text>
                            </g>

                            <g transform="translate(0, 216)">
                                <g transform="translate(0, -6) scale(1.5)" stroke="currentColor" stroke-width="1.8" stroke-linecap="round" stroke-linejoin="round">
                                    <path d="M13 21h8"/>
                                    <path d="M21.174 6.812a1 1 0 0 0-3.986-3.987L3.842 16.174a2 2 0 0 0-.5.83l-1.321 4.352a.5.5 0 0 0 .623.622l4.353-1.32a2 2 0 0 0 .83-.497z"/>
                                </g>
                                <text x="64" y="19" stroke="none" class="menu-text">Edit Node</text>
                            </g>

                            <g transform="translate(0, 288)">
                                <g transform="translate(0, -6) scale(1.5)" stroke="currentColor" stroke-width="1.8" stroke-linecap="round" stroke-linejoin="round">
                                    <path d="M19 6v14a2 2 0 0 1-2 2H7a2 2 0 0 1-2-2V6"/>
                                    <path d="M3 6h18"/>
                                    <path d="M8 6V4a2 2 0 0 1 2-2h4a2 2 0 0 1 2 2v2"/>
                                </g>
                                <text x="64" y="19" stroke="none" class="menu-text">Delete Node</text>
                            </g>

                            </g>
                        </g>
                        </svg>