<svg xmlns="http://www.w3.org/2000/svg" viewBox="34.0431 91.0588 732.1 617.8">
  <defs>
    <linearGradient id="gradLR" x1="0%" y1="0%" x2="100%" y2="0%">
      <stop offset="0%" stop-color="#A53BDD"/>
      <stop offset="100%" stop-color="#CC84FF"/>
    </linearGradient>
  </defs>
  <path d="M436.302 93.75c5.558-5.253 9.438-3.012 14.638 8.457 3.475 7.665 8.184 21.583 12.617 37.293 1.741 6.172 2.353 8.536 6.863 26.5a5547 5547 0 004.552 18 816 816 0 013.429 14c.833 3.575 2.683 11.45 4.113 17.5s3.075 13.25 3.656 16 1.867 8.6 2.859 13c3.084 13.676 5.743 25.693 7.415 33.5a2550 2550 0 003.495 16 871 871 0 013.565 17c.922 4.675 2.348 11.378 3.169 14.897.822 3.518 1.865 8.469 2.319 11s1.726 8.878 2.828 14.103c4.853 23.02 10.47 50.907 11.179 55.5.424 2.75 1.468 7.925 2.32 11.5.851 3.575 1.762 7.85 2.024 9.5s1.459 7.95 2.659 14c3.222 16.234 5.941 30.34 6.942 36 3.888 21.999 16.346 53.249 26.294 65.954 11.574 14.782 19.695 17.564 50.33 17.244 15.696-.164 20.128.119 25.932 1.655 14.391 3.811 23.442 9.591 39.5 25.228 6.325 6.159 12.85 12.319 14.5 13.689 5.833 4.845 42.45 44.403 52.654 56.884 19.734 24.138 24.75 36.899 15.596 39.677-6.802 2.065-110.257 4.936-259.75 7.21-34.375.522-87.25 1.416-117.5 1.986-30.25.569-111.823 1.305-181.273 1.635-131.495.623-161.857.03-166.977-3.261-5.611-3.608-.402-11.941 14.25-22.793 8.361-6.192 13.556-9.271 32.994-19.549 6.751-3.569 32.885-15.542 48.006-21.992 5.5-2.347 10.714-4.63 11.588-5.074.873-.444 6.498-2.691 12.5-4.993 6.001-2.302 12.819-5.044 15.151-6.093S175.278 623 175.645 623s6.56-2.292 13.761-5.093c7.202-2.8 15.569-6.001 18.594-7.113 12.423-4.564 16.648-6.154 19.5-7.341 1.65-.686 7.285-2.677 12.523-4.424l9.523-3.176 14.977 2.122A5624 5624 0 01293 602.098c7.425 1.101 16.875 2.422 21 2.938a674 674 0 0114.5 1.999c3.85.584 10.6 1.481 15 1.992 4.4.512 11.15 1.403 15 1.98 3.85.578 10.825 1.46 15.5 1.961 24.932 2.674 45.199 4.97 48.159 5.457 1.838.302 10.766 1.011 19.841 1.574s17.512 1.296 18.75 1.629c4.018 1.081 2.631-2.348-1.5-3.707-2.062-.679-6.675-2.69-10.25-4.468-15.027-7.475-44.12-19.425-105-43.127a1219 1219 0 00-15.5-5.861c-4.95-1.831-12.15-4.513-16-5.959s-10.6-3.919-15-5.494a569 569 0 01-20.645-7.823c-1.455-.583-2.851-1.651-3.102-2.374s.865-4.915 2.48-9.315 5.321-14.75 8.237-23 6.277-17.7 7.47-21c6.595-18.245 34.461-101.641 55.97-167.5 6.197-18.975 12.083-36.75 13.081-39.5s4.317-12.65 7.375-22c3.058-9.35 9.213-27.575 13.678-40.5 4.464-12.925 8.496-24.625 8.959-26 6.212-18.458 13.999-38.552 24.026-62 9.602-22.456 15.187-32.497 21.273-38.25" fill="url(#gradLR)"/>
</svg>
