
<svg xmlns="http://www.w3.org/2000/svg" width="800" height="800"><path fill="none" stroke="#C667FF" stroke-width="10" d="M436.302 93.75c-6.086 5.753-11.671 15.794-21.273 38.25-10.027 23.448-17.814 43.542-24.026 62-.463 1.375-4.495 13.075-8.959 26-4.465 12.925-10.62 31.15-13.678 40.5s-6.377 19.25-7.375 22-6.884 20.525-13.081 39.5c-21.509 65.859-49.375 149.255-55.97 167.5-1.193 3.3-4.554 12.75-7.47 21s-6.622 18.6-8.237 23-2.731 8.592-2.48 9.315 1.647 1.791 3.102 2.374a569 569 0 0 0 20.645 7.823c4.4 1.575 11.15 4.048 15 5.494s11.05 4.128 16 5.959a1219 1219 0 0 1 15.5 5.861c60.88 23.702 89.973 35.652 105 43.127 3.575 1.778 8.188 3.789 10.25 4.468 4.131 1.359 5.518 4.788 1.5 3.707-1.238-.333-9.675-1.066-18.75-1.629s-18.003-1.272-19.841-1.574c-2.96-.487-23.227-2.783-48.159-5.457-4.675-.501-11.65-1.383-15.5-1.961-3.85-.577-10.6-1.468-15-1.98-4.4-.511-11.15-1.408-15-1.992a674 674 0 0 0-14.5-1.999c-4.125-.516-13.575-1.837-21-2.938a5624 5624 0 0 0-28.477-4.123l-14.977-2.122-9.523 3.176c-5.238 1.747-10.873 3.738-12.523 4.424-2.852 1.187-7.077 2.777-19.5 7.341-3.025 1.112-11.392 4.313-18.594 7.113-7.201 2.801-13.394 5.093-13.761 5.093s-2.574.858-4.906 1.907-9.15 3.791-15.151 6.093c-6.002 2.302-11.627 4.549-12.5 4.993-.874.444-6.088 2.727-11.588 5.074-15.121 6.45-41.255 18.423-48.006 21.992-19.438 10.278-24.633 13.357-32.994 19.549-14.652 10.852-19.861 19.185-14.25 22.793 5.12 3.291 35.482 3.884 166.977 3.261 69.45-.33 151.023-1.066 181.273-1.635 30.25-.57 83.125-1.464 117.5-1.986 149.493-2.274 252.948-5.145 259.75-7.21 9.154-2.778 4.138-15.539-15.596-39.677-10.204-12.481-46.821-52.039-52.654-56.884-1.65-1.37-8.175-7.53-14.5-13.689-16.058-15.637-25.109-21.417-39.5-25.228-5.804-1.536-10.236-1.819-25.932-1.655-30.635.32-38.756-2.462-50.33-17.244-9.948-12.705-22.406-43.955-26.294-65.954-1.001-5.66-3.72-19.766-6.942-36-1.2-6.05-2.397-12.35-2.659-14s-1.173-5.925-2.024-9.5c-.852-3.575-1.896-8.75-2.32-11.5-.709-4.593-6.326-32.48-11.179-55.5-1.102-5.225-2.374-11.572-2.828-14.103s-1.497-7.482-2.319-11c-.821-3.519-2.247-10.222-3.169-14.897a871 871 0 0 0-3.565-17 2550 2550 0 0 1-3.495-16c-1.672-7.807-4.331-19.824-7.415-33.5-.992-4.4-2.278-10.25-2.859-13s-2.226-9.95-3.656-16-3.28-13.925-4.113-17.5a816 816 0 0 0-3.429-14 5547 5547 0 0 1-4.552-18c-4.51-17.964-5.122-20.328-6.863-26.5-4.433-15.71-9.142-29.628-12.617-37.293-5.2-11.469-9.08-13.71-14.638-8.457m10.446 8.25c3.271 6.547 9.303 24.742 15.249 46 3.166 11.319 6.198 23.334 12.111 48 6.934 28.926 8.811 37.07 13.368 58a5360 5360 0 0 0 5.5 25c1.049 4.675 2.115 9.625 2.37 11s1.634 7.9 3.066 14.5c3.059 14.096 9.47 45.047 10.668 51.5.459 2.475 2.002 9.9 3.427 16.5s2.983 14.25 3.461 17 1.554 8.15 2.39 12 4.705 23.425 8.599 43.5c9.823 50.65 13.599 64.132 23.603 84.267 8.968 18.05 17.388 27.214 29.287 31.877 5.075 1.989 8.211 2.288 30.653 2.922 13.75.389 26.8 1.185 29 1.768s7.779 2.975 12.398 5.314c10.203 5.168 19.866 13.736 50.161 44.476 32.776 33.257 50.017 53.612 57.58 67.98 5.016 9.528 4.47 10.641-5.664 11.558-17.477 1.582-173.349 5.231-338.475 7.923-101.805 1.66-342.716 2.37-361.379 1.065-8.458-.591-15.606-1.302-15.885-1.58s.075-1.907.785-3.62c3.151-7.609 27.059-23.418 57.484-38.012C111.222 653.879 147.216 638 148.501 638c.286 0 2.428-.853 4.76-1.896s8.289-3.476 13.239-5.406 12.6-4.936 17-6.679c23.878-9.46 65.012-24.015 67.792-23.987 2.941.029 10.603 1.044 29.208 3.872 13.556 2.06 34.131 4.975 46 6.518 6.6.858 18.75 2.441 27 3.518 14.056 1.836 31.49 3.898 63.5 7.511 7.425.838 20.7 1.78 29.5 2.093 13.415.477 16.305.324 17.89-.95 1.752-1.408 1.774-1.694.308-3.932-1.996-3.046-19.738-11.755-46.698-22.921-23.504-9.736-28.509-11.718-77.5-30.692-5.5-2.13-21.025-7.927-34.5-12.882s-25.287-9.318-26.25-9.695c-.962-.377-1.75-1.158-1.75-1.734s3.415-10.541 7.59-22.143c14.186-39.428 30.585-87.885 57.397-169.595 37.277-113.604 51.387-154.849 65.682-191.983 14.879-38.65 27.89-62.791 33.306-61.797.839.154 2.987 3.205 4.773 6.78"/></svg>
